<svg id="Layer_1" data-name="Layer 1" xmlns="http://www.w3.org/2000/svg" viewBox="0 0 2880 1340.81"><defs><style>.cls-1{fill:#fff;}</style></defs><path class="cls-1" d="M2370.28,784.48l119.2,230.9a41,41,0,0,1,14.23-6.71L2384.49,777.72A37.78,37.78,0,0,1,2370.28,784.48Z"/><path class="cls-1" d="M2523.64,1008.48a41.24,41.24,0,0,1,14.36,6.42l118.2-241.14-14.13-6.92Z"/><path class="cls-1" d="M2537.06,396.48l-14.21-6.73L2369.07,714.2a38.09,38.09,0,0,1,14.43,6.28Z"/><path class="cls-1" d="M2412.35,1070.51l-236.5,77.39a46.74,46.74,0,0,0-6.59-9,47.73,47.73,0,0,0-4.41-4.14l106.94-168.11a48.58,48.58,0,0,1-13.6-7.94l-106.93,168.11a50.45,50.45,0,0,0-50.5,8.29,48.31,48.31,0,0,0-6.77,7L1892.58,1043a355.25,355.25,0,0,0,132.06-71.88l179-27.23-1.52-10.3L2038.5,958.45a335.18,335.18,0,0,0,74.26-105L2243,911.14A45.19,45.19,0,0,1,2249.8,897l-131-58a320.49,320.49,0,0,0,21-90.3l184.19,7.23a35,35,0,0,1,.66-15.72L2140.82,733c.14-3.92.24-7.84.24-11.78a321.33,321.33,0,0,0-27.84-131.27,329.84,329.84,0,0,0-23.89-44.32l71-70.2a50.77,50.77,0,0,0,43.23,5.83l133.27,240.66a37.64,37.64,0,0,1,14-7.16L2217.55,474.09c.91-.68,1.82-1.37,2.69-2.12h0a45.47,45.47,0,0,0,4-66.28,49.14,49.14,0,0,0-28.58-14.88h0L2195,234l-15.72.07.65,156.8a49.27,49.27,0,0,0-24.2,11,47.38,47.38,0,0,0-9.55,11l-246.08-92-5.51,14.73,245.68,91.82a47.54,47.54,0,0,0-.92,6.86,45.14,45.14,0,0,0,9.42,30.32l-68.39,67.65a342.22,342.22,0,0,0-42.95-49.46q-9.48-9-19.57-17.3c76.18-10.2,77.71-10.25,81-10.91l-3.9-12.51a.75.75,0,0,1,.24-.09c-7.62,1-43.43,5.56-92.39,11.85a359,359,0,0,0-171.37-67l-8.58-51.75a49,49,0,0,0,17-9.32h0a45.5,45.5,0,0,0,15.85-42.4l308.79-100.31a34.93,34.93,0,0,1-5.2-14.84L1850.43,268.62a46.86,46.86,0,0,0-6.64-9.05c-17.81-19-48.54-20.73-68.5-3.79a45.47,45.47,0,0,0-4,66.28,47.59,47.59,0,0,0,8.61,7.24L1752,386.12c-80.69,7.71-155.52,41.38-213.67,96.74a336.44,336.44,0,0,0-68.7,92.1h24.84a316.8,316.8,0,0,1,59-76.15c62.57-59.57,145.8-92.38,234.35-92.38s171.78,32.81,234.35,92.38c62.42,59.43,96.8,138.4,96.8,222.37s-34.38,163-96.8,222.38c-62.57,59.57-145.79,92.37-234.35,92.37s-171.78-32.8-234.35-92.37a319.08,319.08,0,0,1-52.55-65H1475.6a337.56,337.56,0,0,0,62.76,80.92C1605,1023,1693.66,1058,1787.89,1058a372.12,372.12,0,0,0,81.35-9l217.32,107.06a45.38,45.38,0,0,0,10.22,45.37,50.31,50.31,0,0,0,68.5,3.79,45.7,45.7,0,0,0,16.38-32.45,44.87,44.87,0,0,0-.55-10l236.13-77.27ZM2155,435.26a30.15,30.15,0,0,1,10.86-21.37,34.39,34.39,0,0,1,46.84,2.55,29.71,29.71,0,0,1,8.18,22.17A30.14,30.14,0,0,1,2210.07,460h0c-13.67,11.59-34.68,10.45-46.85-2.55A29.73,29.73,0,0,1,2155,435.26ZM1774.61,289.14a30.17,30.17,0,0,1,10.85-21.37,34.41,34.41,0,0,1,46.85,2.55,29.76,29.76,0,0,1,8.18,22.18,30.15,30.15,0,0,1-10.86,21.36h0c-13.67,11.6-34.68,10.46-46.84-2.54A29.73,29.73,0,0,1,1774.61,289.14Zm-4.42,95.69,24.07-49.08a51.43,51.43,0,0,0,13,1.77l7.93,47.89q-13.58-1-27.35-1Q1779,384.41,1770.19,384.83Zm395.77,787a30.17,30.17,0,0,1-10.85,21.37c-13.67,11.6-34.69,10.45-46.85-2.54a29.77,29.77,0,0,1-8.18-22.18,30.19,30.19,0,0,1,10.85-21.37,34.41,34.41,0,0,1,46.85,2.55A29.71,29.71,0,0,1,2166,1171.86Z"/><path class="cls-1" d="M2347.8,1003.13l134.38,35c.43-5.32,1.11-6.62,3.65-11.25l-135-35.13Z"/><path class="cls-1" d="M2500,291.7c-8.32-4.55-189.82-85.36-266.68-119.55a35.06,35.06,0,0,1-6.8,14.19c93.87,41.75,258.73,115.23,265.94,119.16Z"/><path class="cls-1" d="M2729.39,663.84a50,50,0,0,0-45-14.71L2583.23,378.8c17.76-8.89,29.93-26.8,29.93-47.4,0-29.44-24.82-53.39-55.34-53.39s-55.35,23.95-55.35,53.39a88.09,88.09,0,0,0,.67,10.83l-229.19,67,4.33,11.32,229.63-67.15c9,17.84,28,31.37,49.91,31.37a56.62,56.62,0,0,0,10.49-1l101.16,270.43a48,48,0,0,0-8.58,5.81,45.7,45.7,0,0,0-16.38,32.46c0,.62-.05,1.24-.06,1.86l-223.19,33.16,2.31,15.56,223.36-33.19a46.25,46.25,0,0,0,10,16.43,50.32,50.32,0,0,0,68.51,3.79,45.46,45.46,0,0,0,4-66.28Zm-171.57-308c-14.53,0-26.36-10.95-26.36-24.4s11.83-24.4,26.36-24.4,26.36,10.95,26.36,24.4S2572.35,355.8,2557.82,355.8Zm168.27,341a30.17,30.17,0,0,1-10.85,21.37c-13.68,11.59-34.69,10.45-46.85-2.54a29.73,29.73,0,0,1-8.18-22.18A30.16,30.16,0,0,1,2671.06,672a34.41,34.41,0,0,1,46.85,2.55A29.75,29.75,0,0,1,2726.09,696.76Z"/><path class="cls-1" d="M2168.68,191.38a38.78,38.78,0,0,0,52.78,2.93h0a37.11,37.11,0,0,0,5.06-5.21,35.15,35.15,0,0,0-2-46.09c-13.72-14.66-37.39-16-52.77-2.93a35.37,35.37,0,0,0-12.67,25.12,35.9,35.9,0,0,0,.16,5.87,34.93,34.93,0,0,0,5.2,14.84A37.3,37.3,0,0,0,2168.68,191.38Z"/><path class="cls-1" d="M2240.63,920a45.32,45.32,0,0,0,12.4,33.83,46.3,46.3,0,0,0,4.41,4.13,48.58,48.58,0,0,0,13.6,7.94,51,51,0,0,0,18.27,3.39,49.71,49.71,0,0,0,32.22-11.67,45.76,45.76,0,0,0,16.38-32.46,45.29,45.29,0,0,0-12.4-33.82c-17.8-19-48.53-20.73-68.5-3.8a47.63,47.63,0,0,0-8,8.63,45.19,45.19,0,0,0-6.81,14.18A45.69,45.69,0,0,0,2240.63,920Z"/><path class="cls-1" d="M2385.16,775.83a35.21,35.21,0,0,0,3.07-51.3,37.55,37.55,0,0,0-5.48-4.8,38.09,38.09,0,0,0-14.43-6.28,39.34,39.34,0,0,0-18.27.52,37.64,37.64,0,0,0-14,7.16l-.58.47a35.37,35.37,0,0,0-12.67,25.12,35.23,35.23,0,0,0,9.59,26.19,38.21,38.21,0,0,0,28,11.91,39.61,39.61,0,0,0,9.19-1.09,37.78,37.78,0,0,0,14.21-6.76C2384.22,776.61,2384.69,776.23,2385.16,775.83Z"/><path class="cls-1" d="M2515.82,1006.63a42.06,42.06,0,0,0-10.36,1.29,41,41,0,0,0-14.23,6.71,40.3,40.3,0,0,0-7.13,6.73,37.75,37.75,0,0,0-7.3,13.94,36.72,36.72,0,0,0-1.34,9.82c0,21.23,18.11,38.49,40.36,38.49s40.35-17.26,40.35-38.49a37.94,37.94,0,0,0-16.42-31,41.24,41.24,0,0,0-14.36-6.42A42.48,42.48,0,0,0,2515.82,1006.63Z"/><path class="cls-1" d="M98.53,828.39V614.47c0-5.22,3.08-8.16,8.56-8.16H294.44c5.48,0,8.56,2.94,8.56,8.16v27.06c0,5.22-3.08,8.16-8.56,8.16H145.8V699.9H242c5.48,0,8.56,2.94,8.56,8.16v23.8c0,5.22-3.08,8.15-8.56,8.15H145.8v53.16H294.44c5.48,0,8.56,2.93,8.56,8.15v27.07c0,5.21-3.08,8.15-8.56,8.15H107.09c-5.48,0-8.56-2.94-8.56-8.15"/><path class="cls-1" d="M533.85,724.69v39.45c0,46.64-16.1,72.4-70.9,72.4H430.07c-26.37,0-41.44-7.18-49.66-20.87v77c0,5.21-3.08,8.15-8.56,8.15H343.76c-5.48,0-8.56-2.94-8.56-8.15V661.42c0-5.21,3.08-8.15,8.56-8.15h28.09c5.48,0,8.56,2.94,8.56,8.15v12.72c8.22-13.69,23.29-20.87,49.66-20.87H463c54.8,0,70.9,26.09,70.9,71.42m-45.21-3.92c0-22.17-6.17-27.39-26.72-27.39h-54.8c-18.49,0-26.71,4.57-26.71,27.39v47.94c0,23.15,8.22,27.72,26.71,27.72h54.8c20.55,0,26.72-5.22,26.72-27.72Z"/><path class="cls-1" d="M570.84,828.39V614.47c0-5.22,3.08-8.16,8.56-8.16h30.14c5.48,0,8.57,2.94,8.57,8.16V828.39c0,5.21-3.09,8.15-8.57,8.15H579.4c-5.48,0-8.56-2.94-8.56-8.15"/><path class="cls-1" d="M650.64,752.08V733.82c0-5.22,3.08-8.15,8.56-8.15h75.35c5.48,0,8.57,2.93,8.57,8.15v18.26c0,5.22-3.09,8.15-8.57,8.15H659.2c-5.48,0-8.56-2.93-8.56-8.15"/><path class="cls-1" d="M775.66,828.39V614.47c0-5.22,3.08-8.16,8.56-8.16H908.55c69.87,0,94.18,28.05,94.18,82.51V696c0,52.83-24.31,81.2-94.18,81.2H823.26v51.2c0,5.21-3.08,8.15-8.56,8.15H784.22c-5.48,0-8.56-2.94-8.56-8.15m129.12-94.25c35.28,0,50.35-7.17,50.35-38.47v-6.85c0-32.94-14.39-39.13-50.35-39.13H823.26v84.45Z"/><path class="cls-1" d="M1039.73,757.3V614.47c0-5.22,3.08-8.16,8.56-8.16h30.48c5.48,0,8.56,2.94,8.56,8.16V758.93c0,28,10.62,34.24,33.57,34.24H1198c23,0,33.22-6.2,33.22-34.24V614.47c0-5.22,3.09-8.16,8.57-8.16h30.82c5.48,0,8.56,2.94,8.56,8.16V757.3c0,48.58-24.66,79.24-81.17,79.24H1120.9c-56.86,0-81.17-30.66-81.17-79.24"/><path class="cls-1" d="M1323.66,828.39V614.47c0-5.22,3.08-8.16,8.56-8.16h37a11.78,11.78,0,0,1,10.28,5.55l86,133.37,85.63-133.37a11.77,11.77,0,0,1,10.27-5.55H1598c5.48,0,8.56,2.94,8.56,8.16V828.39c0,5.21-3.08,8.15-8.56,8.15h-30.14c-5.48,0-8.56-2.94-8.56-8.15V679L1485,792.52a11.78,11.78,0,0,1-10.28,5.54h-19.18a11.77,11.77,0,0,1-10.27-5.54l-74.32-113.16v149c0,5.21-3.09,8.15-8.57,8.15h-30.14c-5.48,0-8.56-2.94-8.56-8.15"/><path class="cls-1" d="M1855.22,830.34l-16.09-33.59H1700.76l-16.44,33.59a11,11,0,0,1-10.28,6.2h-34.59c-6.51,0-9.25-3.92-6.51-9.46l108.92-214.9c2.05-3.91,5.13-5.87,9.93-5.87h36.3c4.8,0,7.88,2,9.94,5.87l108.57,214.9c2.74,5.54,0,9.46-6.51,9.46H1865.5c-4.8,0-8.22-2-10.28-6.2m-33.9-70.76-51-106-51.71,106Z"/></svg>